<svg enable-background="new 0 0 194.328 194.327" viewBox="0 0 194.328 194.327" xmlns="http://www.w3.org/2000/svg"><path d="m107.694 6.772s-4.822 16.94-5.429 16.581c-3.148-1.964-8.966-1.778-11.646-.058-.414-.947-4.055-16.642-4.055-16.642s-8.717 22.643-6.856 34.793c-.362 3.547-.563 11.542.186 13.661-1.452-1.035-34.132-21.175-33.563-36.084-31.058 2.563-93.861 123.345 15.326 168.648-11.85-18.706-19.4-38.533-18.058-48.238 2.405 1.777 7.176 12.494 20.771 19.303 0-3.989 2.28-22.799 7.812-28.352 2.137 3.166 24.068 51.837 24.068 51.837l24.067-51.837s6.46 22.506 4.518 28.059c3.35-2.095 17.78-11.436 21.057-19.01.95 2.947.943 27.541-16.538 48.238 28.412-.037 118.209-102.098 20.666-168.889-1.93 8.242-31.548 36.139-37.229 36.139.061-1.272.834-8.607 0-13.476.888-2.004-2.028-22.101-5.097-34.673z"/></svg>