<svg enable-background="new 0 0 299.998 299.998" viewBox="0 0 299.998 299.998" xmlns="http://www.w3.org/2000/svg"><path d="m103.313 157.774h93.369v10.374h-93.369z"/><path d="m103.313 134.761h93.369v10.374h-93.369z"/><path d="m149.995.001c-82.839 0-149.995 67.159-149.995 149.998s67.156 149.997 149.995 149.997 150.003-67.161 150.003-149.997c-.001-82.842-67.164-149.998-150.003-149.998zm35.693 64.562 31.517 28.669h-31.517zm13.294 170.867h-97.967c-10.068 0-18.225-8.159-18.225-18.225v-134.415c0-10.066 8.159-18.225 18.225-18.225h76.889v36.45h39.298v92.412h-37.002-10.374v10.373h-66.512v10.374h66.513v5.942 10.374h10.373 31.229c-3.26 3.057-7.63 4.94-12.447 4.94zm31.036-15.314h-49.818v-16.316h49.818z"/><path d="m103.313 111.746h93.369v10.374h-93.369z"/><path d="m103.313 180.787h93.369v10.374h-93.369z"/></svg>